<?xml version="1.0" encoding="UTF-8" standalone="no"?>
<!-- Created with Inkscape (http://www.inkscape.org/) -->

<svg
   xmlns:dc="http://purl.org/dc/elements/1.1/"
   xmlns:cc="http://creativecommons.org/ns#"
   xmlns:rdf="http://www.w3.org/1999/02/22-rdf-syntax-ns#"
   xmlns:svg="http://www.w3.org/2000/svg"
   xmlns="http://www.w3.org/2000/svg"
   xmlns:sodipodi="http://sodipodi.sourceforge.net/DTD/sodipodi-0.dtd"
   xmlns:inkscape="http://www.inkscape.org/namespaces/inkscape"
   id="svg2"
   version="1.1"
   inkscape:version="0.91 r13725"
   width="201"
   height="36"
   viewBox="0 0 201 36"
   sodipodi:docname="logo.svg"
   inkscape:export-filename="/home/jjnf/GitLab/Odoo9.0/website_conecta/static/src/images/logo.png"
   inkscape:export-xdpi="90"
   inkscape:export-ydpi="90">
  <metadata
     id="metadata8">
    <rdf:RDF>
      <cc:Work
         rdf:about="">
        <dc:format>image/svg+xml</dc:format>
        <dc:type
           rdf:resource="http://purl.org/dc/dcmitype/StillImage" />
        <dc:title></dc:title>
      </cc:Work>
    </rdf:RDF>
  </metadata>
  <defs
     id="defs6" />
  <sodipodi:namedview
     pagecolor="#ffffff"
     bordercolor="#666666"
     borderopacity="1"
     objecttolerance="10"
     gridtolerance="10"
     guidetolerance="10"
     inkscape:pageopacity="0"
     inkscape:pageshadow="2"
     inkscape:window-width="1600"
     inkscape:window-height="836"
     id="namedview4"
     showgrid="false"
     inkscape:zoom="1.9751244"
     inkscape:cx="67.340053"
     inkscape:cy="0.67749127"
     inkscape:window-x="0"
     inkscape:window-y="27"
     inkscape:window-maximized="1"
     inkscape:current-layer="svg2" />
  <g
     id="g3360">
    <path
       style="fill:#f9f9f9"
       d="m 16.334946,35.955343 c -0.113577,-0.01324 -0.500768,-0.05723 -0.860426,-0.09775 -0.794199,-0.08948 -1.93285,-0.317357 -2.019691,-0.404199 -0.03855,-0.03855 0.120059,-0.314317 0.405384,-0.704809 2.454854,-3.359678 5.978187,-6.346894 9.616366,-8.153126 l 0.808907,-0.401595 0.189186,0.123539 c 0.104049,0.06795 0.379724,0.213403 0.61261,0.323238 l 0.423424,0.1997 0.05085,0.742357 c 0.06683,0.975609 -0.0031,3.197947 -0.136081,4.321723 -0.116278,0.983001 -0.304039,2.122031 -0.386712,2.345912 -0.116389,0.315201 -2.725012,1.189339 -4.401692,1.474988 -1.390236,0.236848 -3.346391,0.341437 -4.302124,0.23002 z M 9.5892152,34.051675 c -0.530021,-0.274411 -1.149527,-0.617985 -1.37668,-0.7635 -1.026908,-0.657842 -2.204647,-1.608412 -3.019599,-2.437161 l -0.472745,-0.480747 0.07996,-0.712853 c 0.354616,-3.161401 1.36098,-6.587054 2.676443,-9.110596 l 0.322933,-0.619505 0.524919,0.02386 c 0.607557,0.02762 1.178544,-0.0755 1.7034318,-0.307628 0.203529,-0.09001 0.417935,-0.163655 0.476457,-0.163655 0.05852,0 0.418628,0.197817 0.800237,0.439593 3.021569,1.914388 6.416847,3.284772 9.982019,4.028889 0.489747,0.102218 0.900268,0.215322 0.912274,0.25134 0.01199,0.03602 -0.311256,0.246866 -0.71836,0.468552 -3.925941,2.13784 -7.505379,5.345898 -10.128318,9.077465 -0.346241,0.492585 -0.613625,0.808031 -0.683905,0.806835 -0.06347,-0.0011 -0.54905,-0.226482 -1.0790718,-0.500892 z M 28.026332,32.16255 c 0.128797,-1.008298 0.189557,-2.375152 0.170345,-3.831852 -0.01693,-1.283471 -0.0023,-1.652785 0.06553,-1.675456 0.04799,-0.01599 0.273579,-0.153511 0.50132,-0.30559 0.513583,-0.342958 0.920817,-0.807819 1.23646,-1.411428 0.279149,-0.533829 0.217087,-0.50621 1.51605,-0.674663 0.47499,-0.0616 1.289486,-0.197679 1.809984,-0.302401 0.520501,-0.104723 0.962349,-0.164538 0.981887,-0.132924 0.06656,0.107692 -0.478403,1.465463 -1.003667,2.500636 -0.856223,1.687416 -1.800386,3.003567 -3.127362,4.359509 -0.792027,0.809316 -1.950737,1.801131 -2.104214,1.801131 -0.06507,0 -0.07718,-0.08546 -0.04633,-0.326962 z M 1.9185902,26.366335 c -1.95470597,-3.83403 -2.43333497,-8.214542 -1.35519397,-12.403023 0.362301,-1.4075 1.12764097,-3.363 1.31620997,-3.363 0.04614,0 0.193959,0.17811 0.328489,0.39579 0.372843,0.60331 1.386731,1.95069 2.179179,2.89598 l 0.711033,0.848168 -0.114202,0.353607 c -0.290999,0.901026 -0.183294,1.954545 0.294745,2.882991 l 0.271629,0.527557 -0.365171,0.728515 c -1.109704,2.213878 -2.022086,4.800691 -2.488804,7.05636 -0.118956,0.574932 -0.217305,0.900016 -0.27228,0.900016 -0.04734,0 -0.27487,-0.370333 -0.505634,-0.822961 z M 30.148437,21.756612 C 30.115297,21.734822 29.956788,21.507853 29.79617,21.252233 29.430547,20.670345 28.933683,20.227637 28.312058,19.929878 27.895434,19.730315 27.645255,19.657942 26.85917,19.50958 26.745719,19.48817 26.664793,19.343254 26.487652,18.844334 25.306051,15.516335 23.706247,12.705492 21.245501,9.6339124 l -0.195189,-0.24365 0.146769,-0.41027 c 0.08072,-0.2256603 0.165852,-0.6735703 0.189175,-0.9953703 l 0.0424,-0.58509 0.323454,-0.16049 c 0.500091,-0.24813 2.390946,-0.88691 3.389433,-1.14503 1.655732,-0.42802 4.082068,-0.83206 4.311725,-0.71798 0.212731,0.10567 1.689234,1.69735 2.186367,2.35692 2.190883,2.9067499 3.418624,6.3350809 3.565849,9.9572569 0.03892,0.957402 -0.05697,2.801858 -0.159564,3.069199 -0.0414,0.107891 -0.50345,0.248709 -1.674573,0.510361 -1.303867,0.29131 -3.106253,0.563573 -3.222915,0.486843 z m -7.859354,-0.28159 c -1.816875,-0.347666 -3.840712,-0.953224 -5.506715,-1.647681 -1.418571,-0.591316 -3.852631,-1.895302 -4.468072,-2.393656 -0.149094,-0.12073 -0.150592,-0.136807 -0.06678,-0.716498 0.07338,-0.507528 0.06992,-0.673284 -0.02402,-1.150046 -0.06036,-0.306377 -0.188998,-0.730163 -0.285865,-0.941747 l -0.176118,-0.384698 0.425519,-0.460724 c 0.638374,-0.69118 1.860503,-1.82675 2.616067,-2.43078 l 0.670852,-0.5363 0.57396,0.2754 c 0.947964,0.45487 1.832387,0.50371 2.975846,0.16435 0.117715,-0.0349 0.236713,0.0792 0.696448,0.66807 1.857054,2.378629 3.370492,5.132016 4.330818,7.87903 l 0.19604,0.56077 -0.27464,0.299655 c -0.151052,0.16481 -0.367032,0.446733 -0.479951,0.626493 -0.237016,0.377312 -0.225438,0.3755 -1.203403,0.188362 z M 6.4145592,12.235112 C 5.4187382,11.057082 4.2427922,9.3971824 3.6426402,8.3224321 l -0.214957,-0.38494 0.356972,-0.47548 c 0.44384,-0.59119 2.195684,-2.35347 2.852324,-2.86931 0.746775,-0.58666 1.600703,-1.15112 1.741424,-1.15112 0.143862,0 1.219309,0.4672 2.1584158,0.93767 0.803754,0.40266 1.936444,1.07296 2.858445,1.69155 0.673899,0.45214 0.713297,0.49142 0.665819,0.66374 -0.02777,0.10073 -0.05791,0.56859 -0.06702,1.03967 -0.01578,0.81598 -0.02456,0.86323 -0.185934,0.9981 -0.09316,0.0779 -0.50748,0.4192303 -0.920717,0.7586003 -0.413234,0.33937 -1.313855,1.1704996 -2.001376,1.8469596 l -1.2500418,1.22992 -0.534082,-0.081 c -0.599056,-0.0908 -1.098017,-0.0487 -1.71452,0.1446 -0.227625,0.0714 -0.431626,0.13019 -0.453328,0.13068 -0.02172,4.9e-4 -0.255482,-0.25466 -0.519506,-0.567 z M 19.944894,4.7783321 c -0.60586,-0.45385 -1.557428,-0.78608 -2.251486,-0.78608 -0.456451,0 -0.974987,0.11136 -1.511089,0.32451 l -0.42796,0.17017 -0.983136,-0.65151 c -0.960622,-0.6366 -2.070292,-1.29681 -2.785155,-1.65707 -0.196078,-0.0988 -0.376414,-0.21188 -0.400748,-0.25126 -0.06024,-0.0975 0.298507,-0.23804 1.331836,-0.52185 3.441787,-0.94531005 6.9227,-0.84769005 10.321492,0.28945 1.151535,0.38527 2.898747,1.19502 2.952412,1.3683 0.01172,0.0379 -0.512951,0.19897 -1.165947,0.35802 -1.4063,0.34254 -2.661027,0.73605 -3.821289,1.19843 -0.464389,0.18507 -0.884282,0.33648 -0.933096,0.33648 -0.04881,0 -0.195438,-0.0799 -0.325834,-0.17759 z"
       id="path3348"
       inkscape:connector-curvature="0" />
    <text
       sodipodi:linespacing="125%"
       id="text3354"
       y="30.177582"
       x="51.895466"
       style="font-style:normal;font-variant:normal;font-weight:bold;font-stretch:normal;font-size:35px;line-height:125%;font-family:'Arial Rounded MT Bold';-inkscape-font-specification:'Arial Rounded MT Bold, Bold';text-align:start;letter-spacing:0px;word-spacing:0px;writing-mode:lr-tb;text-anchor:start;fill:#f9f9f9;fill-opacity:1;stroke:none;stroke-width:1px;stroke-linecap:butt;stroke-linejoin:miter;stroke-opacity:1"
       xml:space="preserve"><tspan
         y="30.177582"
         x="51.895466"
         id="tspan3356"
         sodipodi:role="line">Conecta</tspan></text>
  </g>
</svg>
